<svg width="40" height="40" viewBox="0 0 40 40" fill="none" xmlns="http://www.w3.org/2000/svg">
	<path fill-rule="evenodd" clip-rule="evenodd" d="M25 17.5C25.4603 17.5 25.8334 17.8731 25.8334 18.3333V26.6667C25.8334 27.1269 25.4603 27.5 25 27.5C24.5398 27.5 24.1667 27.1269 24.1667 26.6667V18.3333C24.1667 17.8731 24.5398 17.5 25 17.5Z" fill="#333333" />
	<path fill-rule="evenodd" clip-rule="evenodd" d="M20 12.5C20.4603 12.5 20.8334 12.8731 20.8334 13.3333V26.6667C20.8334 27.1269 20.4603 27.5 20 27.5C19.5398 27.5 19.1667 27.1269 19.1667 26.6667V13.3333C19.1667 12.8731 19.5398 12.5 20 12.5Z" fill="#333333" />
	<path fill-rule="evenodd" clip-rule="evenodd" d="M15 20.8335C15.4603 20.8335 15.8334 21.2066 15.8334 21.6668V26.6668C15.8334 27.1271 15.4603 27.5002 15 27.5002C14.5398 27.5002 14.1667 27.1271 14.1667 26.6668V21.6668C14.1667 21.2066 14.5398 20.8335 15 20.8335Z" fill="#333333" />
</svg>
