<svg width="40" height="40" viewBox="0 0 40 40" fill="none" xmlns="http://www.w3.org/2000/svg">
	<path fill-rule="evenodd" clip-rule="evenodd" d="M14.1667 14.1667C13.7064 14.1667 13.3334 14.5398 13.3334 15V26.6667C13.3334 27.1269 13.7064 27.5 14.1667 27.5H25.8334C26.2936 27.5 26.6667 27.1269 26.6667 26.6667V15C26.6667 14.5398 26.2936 14.1667 25.8334 14.1667H14.1667ZM11.6667 15C11.6667 13.6193 12.786 12.5 14.1667 12.5H25.8334C27.2141 12.5 28.3334 13.6193 28.3334 15V26.6667C28.3334 28.0474 27.2141 29.1667 25.8334 29.1667H14.1667C12.786 29.1667 11.6667 28.0474 11.6667 26.6667V15Z" fill="#333333" />
	<path fill-rule="evenodd" clip-rule="evenodd" d="M23.3333 10.8335C23.7936 10.8335 24.1667 11.2066 24.1667 11.6668V15.0002C24.1667 15.4604 23.7936 15.8335 23.3333 15.8335C22.8731 15.8335 22.5 15.4604 22.5 15.0002V11.6668C22.5 11.2066 22.8731 10.8335 23.3333 10.8335Z" fill="#333333" />
	<path fill-rule="evenodd" clip-rule="evenodd" d="M16.6666 10.8335C17.1269 10.8335 17.5 11.2066 17.5 11.6668V15.0002C17.5 15.4604 17.1269 15.8335 16.6666 15.8335C16.2064 15.8335 15.8333 15.4604 15.8333 15.0002V11.6668C15.8333 11.2066 16.2064 10.8335 16.6666 10.8335Z" fill="#333333" />
	<path fill-rule="evenodd" clip-rule="evenodd" d="M11.6667 18.3333C11.6667 17.8731 12.0398 17.5 12.5 17.5H27.5C27.9603 17.5 28.3334 17.8731 28.3334 18.3333C28.3334 18.7936 27.9603 19.1667 27.5 19.1667H12.5C12.0398 19.1667 11.6667 18.7936 11.6667 18.3333Z" fill="#333333" />
</svg>
