<svg width="64" height="68" viewBox="0 0 64 68" fill="none" xmlns="http://www.w3.org/2000/svg">
	<mask id="mask0_308_813" style="mask-type:alpha" maskUnits="userSpaceOnUse" x="12" y="3" width="40" height="40">
		<circle cx="32" cy="23" r="20" fill="white" />
	</mask>
	<g mask="url(#mask0_308_813)">
		<path d="M21 23.66C22.96 22.4 29.7847 10.5 30.24 27.02C30.4139 33.3305 22.7847 37.5 40.2847 35C43.5047 31.22 50.7847 18 36.7847 14" stroke="#0D25FF" stroke-width="13" />
		<path d="M30.4753 13C30.8953 20.98 8.21529 27.28 20.8153 29.8C33.4153 32.32 36.7753 31.48 33.4153 34" stroke="#FF9DDE" stroke-width="12" />
	</g>
	<g filter="url(#filter0_bdd_308_813)">
		<circle cx="32" cy="23" r="20" fill="white" fill-opacity="0.07" shape-rendering="crispEdges" />
	</g>
	<g filter="url(#filter1_b_308_813)">
		<circle cx="32" cy="23" r="19.6" stroke="#EDEDED" stroke-width="0.8" />
	</g>
	<path fill-rule="evenodd" clip-rule="evenodd" d="M25.3333 16.3332C25.1123 16.3332 24.9003 16.421 24.7441 16.5772C24.5878 16.7335 24.5 16.9455 24.5 17.1665V28.8332C24.5 29.0542 24.5878 29.2661 24.7441 29.4224C24.9003 29.5787 25.1123 29.6665 25.3333 29.6665H36.1666C36.2026 29.6665 36.2386 29.6688 36.2743 29.6735C36.4389 29.6949 36.6062 29.6667 36.7546 29.5925C36.887 29.5263 36.9991 29.4262 37.0797 29.3027L39.1308 23.8332H29.2308L27.7737 27.476C27.6028 27.9033 27.1178 28.1112 26.6905 27.9402C26.2632 27.7693 26.0553 27.2843 26.2262 26.857L27.8929 22.6903C28.0195 22.374 28.3259 22.1665 28.6666 22.1665H37.8333V19.6665C37.8333 19.4455 37.7455 19.2335 37.5892 19.0772C37.433 18.921 37.221 18.8332 37 18.8332H31.1666C30.888 18.8332 30.6278 18.6939 30.4733 18.4621L29.054 16.3332H25.3333ZM39.5 22.1665V19.6665C39.5 19.0035 39.2366 18.3676 38.7677 17.8987C38.2989 17.4299 37.663 17.1665 37 17.1665H31.6126L30.1934 15.0376C30.0388 14.8058 29.7786 14.6665 29.5 14.6665H25.3333C24.6703 14.6665 24.0344 14.9299 23.5655 15.3987C23.0967 15.8676 22.8333 16.5035 22.8333 17.1665V28.8332C22.8333 29.4962 23.0967 30.1321 23.5655 30.6009C24.0344 31.0698 24.6703 31.3332 25.3333 31.3332H36.1181C36.5927 31.3836 37.0723 31.297 37.5 31.0832C37.9454 30.8605 38.3142 30.5098 38.559 30.0762C38.5802 30.0386 38.5984 29.9995 38.6136 29.9591L41.1136 23.2924C41.2096 23.0365 41.1739 22.7498 41.0183 22.5252C40.8626 22.3005 40.6066 22.1665 40.3333 22.1665H39.5Z" fill="white" />
	<defs>
		<filter id="filter0_bdd_308_813" x="0" y="-7" width="64" height="75" filterUnits="userSpaceOnUse" color-interpolation-filters="sRGB">
			<feFlood flood-opacity="0" result="BackgroundImageFix" />
			<feGaussianBlur in="BackgroundImageFix" stdDeviation="5" />
			<feComposite in2="SourceAlpha" operator="in" result="effect1_backgroundBlur_308_813" />
			<feColorMatrix in="SourceAlpha" type="matrix" values="0 0 0 0 0 0 0 0 0 0 0 0 0 0 0 0 0 0 127 0" result="hardAlpha" />
			<feMorphology radius="4" operator="erode" in="SourceAlpha" result="effect2_dropShadow_308_813" />
			<feOffset dy="13" />
			<feGaussianBlur stdDeviation="8" />
			<feComposite in2="hardAlpha" operator="out" />
			<feColorMatrix type="matrix" values="0 0 0 0 0.197917 0 0 0 0 0.266678 0 0 0 0 0.95 0 0 0 0.42 0" />
			<feBlend mode="normal" in2="effect1_backgroundBlur_308_813" result="effect2_dropShadow_308_813" />
			<feColorMatrix in="SourceAlpha" type="matrix" values="0 0 0 0 0 0 0 0 0 0 0 0 0 0 0 0 0 0 127 0" result="hardAlpha" />
			<feMorphology radius="4" operator="erode" in="SourceAlpha" result="effect3_dropShadow_308_813" />
			<feOffset dx="-2" dy="5" />
			<feGaussianBlur stdDeviation="6" />
			<feComposite in2="hardAlpha" operator="out" />
			<feColorMatrix type="matrix" values="0 0 0 0 0.866667 0 0 0 0 0.213056 0 0 0 0 0.676664 0 0 0 0.28 0" />
			<feBlend mode="normal" in2="effect2_dropShadow_308_813" result="effect3_dropShadow_308_813" />
			<feBlend mode="normal" in="SourceGraphic" in2="effect3_dropShadow_308_813" result="shape" />
		</filter>
		<filter id="filter1_b_308_813" x="2" y="-7" width="60" height="60" filterUnits="userSpaceOnUse" color-interpolation-filters="sRGB">
			<feFlood flood-opacity="0" result="BackgroundImageFix" />
			<feGaussianBlur in="BackgroundImageFix" stdDeviation="5" />
			<feComposite in2="SourceAlpha" operator="in" result="effect1_backgroundBlur_308_813" />
			<feBlend mode="normal" in="SourceGraphic" in2="effect1_backgroundBlur_308_813" result="shape" />
		</filter>
	</defs>
</svg>
