<svg width="40" height="40" viewBox="0 0 40 40" fill="none" xmlns="http://www.w3.org/2000/svg">
	<path fill-rule="evenodd" clip-rule="evenodd" d="M11.6667 12.4998C11.6667 12.0396 12.0398 11.6665 12.5 11.6665H18.3334C18.7936 11.6665 19.1667 12.0396 19.1667 12.4998V19.9998C19.1667 20.4601 18.7936 20.8332 18.3334 20.8332H12.5C12.0398 20.8332 11.6667 20.4601 11.6667 19.9998V12.4998ZM13.3334 13.3332V19.1665H17.5V13.3332H13.3334Z" fill="#333333" />
	<path fill-rule="evenodd" clip-rule="evenodd" d="M20.8333 12.4998C20.8333 12.0396 21.2064 11.6665 21.6666 11.6665H27.5C27.9602 11.6665 28.3333 12.0396 28.3333 12.4998V16.6665C28.3333 17.1267 27.9602 17.4998 27.5 17.4998H21.6666C21.2064 17.4998 20.8333 17.1267 20.8333 16.6665V12.4998ZM22.5 13.3332V15.8332H26.6666V13.3332H22.5Z" fill="#333333" />
	<path fill-rule="evenodd" clip-rule="evenodd" d="M20.8333 19.9998C20.8333 19.5396 21.2064 19.1665 21.6666 19.1665H27.5C27.9602 19.1665 28.3333 19.5396 28.3333 19.9998V27.4998C28.3333 27.9601 27.9602 28.3332 27.5 28.3332H21.6666C21.2064 28.3332 20.8333 27.9601 20.8333 27.4998V19.9998ZM22.5 20.8332V26.6665H26.6666V20.8332H22.5Z" fill="#333333" />
	<path fill-rule="evenodd" clip-rule="evenodd" d="M11.6667 23.3333C11.6667 22.8731 12.0398 22.5 12.5 22.5H18.3334C18.7936 22.5 19.1667 22.8731 19.1667 23.3333V27.5C19.1667 27.9602 18.7936 28.3333 18.3334 28.3333H12.5C12.0398 28.3333 11.6667 27.9602 11.6667 27.5V23.3333ZM13.3334 24.1667V26.6667H17.5V24.1667H13.3334Z" fill="#333333" />
</svg>
