<svg width="40" height="40" viewBox="0 0 40 40" fill="none" xmlns="http://www.w3.org/2000/svg">
	<path fill-rule="evenodd" clip-rule="evenodd" d="M14.1667 13.3332C13.9457 13.3332 13.7337 13.421 13.5774 13.5772C13.4212 13.7335 13.3334 13.9455 13.3334 14.1665V25.488L15.2441 23.5772C15.4004 23.421 15.6123 23.3332 15.8334 23.3332H25.8334C26.0544 23.3332 26.2663 23.2454 26.4226 23.0891C26.5789 22.9328 26.6667 22.7209 26.6667 22.4998V14.1665C26.6667 13.9455 26.5789 13.7335 26.4226 13.5772C26.2663 13.421 26.0544 13.3332 25.8334 13.3332H14.1667ZM12.3989 12.3987C12.8678 11.9299 13.5036 11.6665 14.1667 11.6665H25.8334C26.4964 11.6665 27.1323 11.9299 27.6011 12.3987C28.07 12.8676 28.3334 13.5035 28.3334 14.1665V22.4998C28.3334 23.1629 28.07 23.7988 27.6011 24.2676C27.1323 24.7364 26.4964 24.9998 25.8334 24.9998H16.1785L13.0893 28.0891C12.8509 28.3274 12.4925 28.3987 12.1811 28.2697C11.8697 28.1408 11.6667 27.8369 11.6667 27.4998V14.1665C11.6667 13.5035 11.9301 12.8676 12.3989 12.3987Z" fill="#333333" />
</svg>
