<svg width="40" height="40" viewBox="0 0 40 40" fill="none" xmlns="http://www.w3.org/2000/svg">
	<path fill-rule="evenodd" clip-rule="evenodd" d="M15.8752 12.542C16.9692 11.4481 18.4529 10.8335 20 10.8335C21.5471 10.8335 23.0309 11.4481 24.1248 12.542C25.2188 13.636 25.8334 15.1197 25.8334 16.6668C25.8334 19.4607 26.4309 21.1957 26.9816 22.2053C27.2581 22.7122 27.5273 23.0447 27.7144 23.2421C27.8081 23.3411 27.8817 23.4067 27.9261 23.4436C27.9483 23.4621 27.9632 23.4735 27.9696 23.4782C27.9706 23.479 27.9714 23.4796 27.9719 23.48C28.2707 23.6852 28.4029 24.0606 28.2976 24.4083C28.1912 24.7598 27.8672 25.0002 27.5 25.0002H12.5C12.1328 25.0002 11.8089 24.7598 11.7024 24.4083C11.5972 24.0606 11.7294 23.6852 12.0281 23.48C12.0287 23.4796 12.0295 23.479 12.0305 23.4782C12.0369 23.4735 12.0518 23.4621 12.074 23.4436C12.1183 23.4067 12.192 23.3411 12.2857 23.2421C12.4727 23.0447 12.7419 22.7122 13.0184 22.2053C13.5691 21.1957 14.1667 19.4607 14.1667 16.6668C14.1667 15.1197 14.7813 13.636 15.8752 12.542ZM12.0365 23.4743C12.0366 23.4742 12.0367 23.4742 12.0367 23.4742C12.0367 23.4742 12.0367 23.4742 12.0367 23.4742L12.0365 23.4743ZM14.2911 23.3335H25.7089C25.6455 23.2296 25.5819 23.1196 25.5184 23.0034C24.8191 21.7213 24.1667 19.7063 24.1667 16.6668C24.1667 15.5618 23.7277 14.502 22.9463 13.7206C22.1649 12.9391 21.1051 12.5002 20 12.5002C18.895 12.5002 17.8351 12.9391 17.0537 13.7206C16.2723 14.502 15.8334 15.5618 15.8334 16.6668C15.8334 19.7063 15.1809 21.7213 14.4816 23.0034C14.4182 23.1196 14.3545 23.2296 14.2911 23.3335Z" fill="#333333" />
	<path fill-rule="evenodd" clip-rule="evenodd" d="M18.1402 26.7791C18.5383 26.5482 19.0482 26.6837 19.2792 27.0818C19.3524 27.2081 19.4576 27.3129 19.5841 27.3858C19.7106 27.4587 19.854 27.497 20 27.497C20.146 27.497 20.2894 27.4587 20.4159 27.3858C20.5424 27.3129 20.6476 27.2081 20.7208 27.0818C20.9518 26.6837 21.4617 26.5482 21.8598 26.7791C22.2579 27.0101 22.3934 27.52 22.1625 27.9181C21.9427 28.297 21.6273 28.6114 21.2478 28.83C20.8683 29.0486 20.438 29.1637 20 29.1637C19.562 29.1637 19.1317 29.0486 18.7522 28.83C18.3727 28.6114 18.0573 28.297 17.8375 27.9181C17.6066 27.52 17.7421 27.0101 18.1402 26.7791Z" fill="#333333" />
</svg>
