<svg width="40" height="40" viewBox="0 0 40 40" fill="none" xmlns="http://www.w3.org/2000/svg">
	<path fill-rule="evenodd" clip-rule="evenodd" d="M11.2204 22.8869C12.0018 22.1055 13.0616 21.6665 14.1667 21.6665H20.8333C21.9384 21.6665 22.9982 22.1055 23.7796 22.8869C24.561 23.6683 25 24.7281 25 25.8332V27.4998C25 27.9601 24.6269 28.3332 24.1667 28.3332C23.7064 28.3332 23.3333 27.9601 23.3333 27.4998V25.8332C23.3333 25.1701 23.0699 24.5342 22.6011 24.0654C22.1323 23.5966 21.4964 23.3332 20.8333 23.3332H14.1667C13.5036 23.3332 12.8677 23.5966 12.3989 24.0654C11.9301 24.5342 11.6667 25.1701 11.6667 25.8332V27.4998C11.6667 27.9601 11.2936 28.3332 10.8333 28.3332C10.3731 28.3332 10 27.9601 10 27.4998V25.8332C10 24.7281 10.439 23.6683 11.2204 22.8869Z" fill="#333333" />
	<path fill-rule="evenodd" clip-rule="evenodd" d="M17.5 13.3332C16.1193 13.3332 15 14.4525 15 15.8332C15 17.2139 16.1193 18.3332 17.5 18.3332C18.8807 18.3332 20 17.2139 20 15.8332C20 14.4525 18.8807 13.3332 17.5 13.3332ZM13.3333 15.8332C13.3333 13.532 15.1988 11.6665 17.5 11.6665C19.8012 11.6665 21.6666 13.532 21.6666 15.8332C21.6666 18.1344 19.8012 19.9998 17.5 19.9998C15.1988 19.9998 13.3333 18.1344 13.3333 15.8332Z" fill="#333333" />
	<path fill-rule="evenodd" clip-rule="evenodd" d="M25.8598 22.4001C25.9749 21.9545 26.4294 21.6865 26.875 21.8016C27.7689 22.0324 28.5608 22.5535 29.1264 23.2831C29.692 24.0128 29.9993 24.9096 30 25.8328L30 27.5001C30 27.9603 29.6269 28.3334 29.1667 28.3334C28.7064 28.3334 28.3333 27.9603 28.3333 27.5001V25.8341C28.3333 25.834 28.3333 25.8341 28.3333 25.8341C28.3329 25.2802 28.1485 24.742 27.8092 24.3043C27.4698 23.8665 26.9947 23.5538 26.4583 23.4153C26.0127 23.3002 25.7447 22.8457 25.8598 22.4001Z" fill="#333333" />
	<path fill-rule="evenodd" clip-rule="evenodd" d="M22.5261 12.4017C22.6402 11.9559 23.0942 11.687 23.5401 11.8011C24.4363 12.0306 25.2307 12.5519 25.798 13.2827C26.3653 14.0136 26.6732 14.9124 26.6732 15.8376C26.6732 16.7628 26.3653 17.6616 25.798 18.3925C25.2307 19.1233 24.4363 19.6446 23.5401 19.8741C23.0942 19.9882 22.6402 19.7193 22.5261 19.2735C22.4119 18.8276 22.6808 18.3736 23.1267 18.2595C23.6644 18.1218 24.141 17.809 24.4814 17.3705C24.8218 16.932 25.0066 16.3927 25.0066 15.8376C25.0066 15.2825 24.8218 14.7432 24.4814 14.3047C24.141 13.8662 23.6644 13.5534 23.1267 13.4157C22.6808 13.3016 22.4119 12.8476 22.5261 12.4017Z" fill="#333333" />
</svg>
