<svg width="40" height="40" viewBox="0 0 40 40" fill="none" xmlns="http://www.w3.org/2000/svg">
	<path d="M20.24 31H19.8C19 31 18.25 30.69 17.68 30.12C17.11 29.55 16.8 28.8 16.8 28V27.82C16.8 27.65 16.75 27.47 16.67 27.32C16.58 27.17 16.46 27.04 16.3 26.95L15.87 26.7C15.57 26.53 15.18 26.53 14.87 26.7L14.69 26.8C14.03 27.18 13.22 27.29 12.45 27.08C11.69 26.87 11.02 26.37 10.63 25.68L10.4 25.31C9.99999 24.61 9.88999 23.81 10.1 23.03C10.31 22.26 10.8 21.61 11.49 21.21L11.62 21.13C11.79 21.03 11.91 20.91 12 20.75C12.09 20.6 12.13 20.42 12.13 20.25V19.73C12.13 19.56 12.08 19.39 12 19.24C11.93 19.1 11.8 18.97 11.65 18.89L11.45 18.76C10.8 18.38 10.31 17.74 10.1 16.96C9.89999 16.19 9.99999 15.38 10.4 14.69L10.62 14.31C11.01 13.63 11.68 13.12 12.44 12.92C13.21 12.71 14.02 12.82 14.71 13.22L14.83 13.28C15.2 13.49 15.56 13.47 15.87 13.29L16.3 13.05C16.45 12.96 16.58 12.83 16.67 12.68C16.75 12.53 16.8 12.35 16.8 12.18V12C16.8 11.2 17.11 10.45 17.68 9.88C18.24 9.31 19 9 19.8 9H20.24C21.04 9 21.79 9.31 22.36 9.88C22.93 10.45 23.24 11.2 23.24 12V12.18C23.24 12.35 23.29 12.53 23.37 12.68C23.46 12.83 23.58 12.96 23.74 13.04L24.17 13.29C24.47 13.46 24.86 13.46 25.17 13.29L25.35 13.19C26.01 12.81 26.83 12.7 27.6 12.91C28.37 13.12 29.02 13.61 29.42 14.3L29.64 14.68C30.04 15.37 30.15 16.18 29.94 16.95C29.73 17.72 29.24 18.37 28.55 18.77L28.4 18.87C28.23 18.97 28.11 19.09 28.02 19.24C27.93 19.39 27.88 19.57 27.89 19.74V20.24C27.89 20.42 27.94 20.59 28.02 20.75C28.11 20.9 28.23 21.03 28.39 21.12L28.51 21.18C29.23 21.6 29.73 22.25 29.94 23.02C30.15 23.79 30.04 24.6 29.64 25.29L29.43 25.67C29.02 26.37 28.38 26.87 27.6 27.07C26.84 27.27 26.01 27.16 25.33 26.77L25.21 26.71C24.85 26.5 24.49 26.52 24.18 26.69L23.75 26.94C23.59 27.03 23.47 27.16 23.38 27.31C23.29 27.46 23.25 27.63 23.25 27.81V28C23.25 28.8 22.94 29.55 22.37 30.12C21.79 30.69 21.04 31 20.24 31ZM15.37 24.57C15.9 24.57 16.41 24.71 16.87 24.97L17.3 25.22C17.75 25.48 18.13 25.86 18.39 26.31C18.65 26.77 18.79 27.28 18.79 27.81V28C18.79 28.27 18.89 28.52 19.08 28.71C19.28 28.9 19.53 29 19.8 29H20.24C20.51 29 20.76 28.9 20.95 28.71C21.14 28.52 21.24 28.27 21.24 28V27.82C21.24 27.3 21.38 26.78 21.64 26.32C21.9 25.86 22.28 25.49 22.74 25.22L23.17 24.97C24.08 24.44 25.26 24.44 26.17 24.97L26.29 25.03C26.54 25.18 26.82 25.21 27.08 25.14C27.34 25.07 27.55 24.91 27.69 24.68L27.9 24.3C28.04 24.06 28.07 23.79 28.01 23.53C27.94 23.28 27.77 23.05 27.54 22.92L27.42 22.86C26.93 22.58 26.55 22.2 26.29 21.74C26.03 21.28 25.89 20.76 25.89 20.24V19.74C25.89 19.22 26.03 18.69 26.29 18.24C26.55 17.78 26.93 17.4 27.39 17.14L27.53 17.06C27.77 16.92 27.93 16.7 28 16.45C28.07 16.2 28.03 15.92 27.9 15.69L27.68 15.31C27.55 15.08 27.33 14.92 27.07 14.85C26.82 14.78 26.54 14.82 26.31 14.95L26.13 15.05C25.28 15.55 24.07 15.56 23.16 15.03L22.73 14.78C22.28 14.52 21.9 14.14 21.64 13.69C21.38 13.23 21.24 12.71 21.24 12.19V12C21.24 11.74 21.13 11.48 20.95 11.29C20.76 11.11 20.5 11 20.24 11H19.8C19.54 11 19.28 11.11 19.09 11.29C18.91 11.48 18.8 11.74 18.8 12V12.18C18.8 12.71 18.66 13.22 18.4 13.68C18.14 14.13 17.76 14.51 17.3 14.78L16.87 15.02C15.95 15.55 14.77 15.55 13.87 15.02L13.75 14.96C13.49 14.81 13.22 14.78 12.96 14.85C12.71 14.91 12.49 15.08 12.36 15.31L12.13 15.69C12 15.92 11.97 16.19 12.03 16.45C12.1 16.71 12.27 16.92 12.5 17.05L12.7 17.18C13.1 17.41 13.48 17.78 13.74 18.24C14 18.7 14.15 19.21 14.15 19.73V20.25C14.15 20.77 14.02 21.29 13.75 21.75C13.49 22.21 13.11 22.59 12.65 22.85L12.52 22.93C12.27 23.07 12.11 23.29 12.04 23.55C11.97 23.81 12.01 24.08 12.14 24.31L12.36 24.69C12.49 24.92 12.71 25.09 12.97 25.16C13.23 25.23 13.5 25.19 13.73 25.06L13.91 24.96C14.32 24.71 14.84 24.57 15.37 24.57Z" fill="#333333" />
	<path d="M20.02 24C17.81 24 16.02 22.21 16.02 20C16.02 17.79 17.81 16 20.02 16C22.23 16 24.02 17.79 24.02 20C24.02 22.21 22.22 24 20.02 24ZM20.02 18C18.92 18 18.02 18.9 18.02 20C18.02 21.1 18.92 22 20.02 22C21.12 22 22.02 21.1 22.02 20C22.02 18.9 21.12 18 20.02 18Z" fill="#333333" />
</svg>
